<mxfile host="app.diagrams.net" modified="2021-05-19T11:34:13.563Z" agent="5.0 (Windows NT 10.0; Win64; x64) AppleWebKit/537.36 (KHTML, like Gecko) Chrome/90.0.4430.212 Safari/537.36" etag="miRwSXaHE8fmRqvUVAvb" version="14.6.13" type="github">
  <diagram id="C5RBs43oDa-KdzZeNtuy" name="Page-1">
    <mxGraphModel dx="1332" dy="548" grid="1" gridSize="10" guides="1" tooltips="1" connect="1" arrows="1" fold="1" page="1" pageScale="1" pageWidth="827" pageHeight="1169" math="0" shadow="0">
      <root>
        <mxCell id="WIyWlLk6GJQsqaUBKTNV-0" />
        <mxCell id="WIyWlLk6GJQsqaUBKTNV-1" parent="WIyWlLk6GJQsqaUBKTNV-0" />
        <mxCell id="vbCb1EXiqkDTW1d0GYdN-4" style="edgeStyle=orthogonalEdgeStyle;rounded=0;orthogonalLoop=1;jettySize=auto;html=1;" edge="1" parent="WIyWlLk6GJQsqaUBKTNV-1" source="WIyWlLk6GJQsqaUBKTNV-3">
          <mxGeometry relative="1" as="geometry">
            <mxPoint x="173" y="150" as="targetPoint" />
          </mxGeometry>
        </mxCell>
        <mxCell id="WIyWlLk6GJQsqaUBKTNV-3" value="Player 1 rolls the dice" style="rounded=1;whiteSpace=wrap;html=1;fontSize=12;glass=0;strokeWidth=1;shadow=0;" parent="WIyWlLk6GJQsqaUBKTNV-1" vertex="1">
          <mxGeometry x="35" y="130" width="90" height="40" as="geometry" />
        </mxCell>
        <mxCell id="vbCb1EXiqkDTW1d0GYdN-5" style="edgeStyle=orthogonalEdgeStyle;rounded=0;orthogonalLoop=1;jettySize=auto;html=1;entryX=0;entryY=0.75;entryDx=0;entryDy=0;" edge="1" parent="WIyWlLk6GJQsqaUBKTNV-1" source="WIyWlLk6GJQsqaUBKTNV-6" target="vbCb1EXiqkDTW1d0GYdN-0">
          <mxGeometry relative="1" as="geometry" />
        </mxCell>
        <mxCell id="vbCb1EXiqkDTW1d0GYdN-6" value="Yes" style="edgeLabel;html=1;align=center;verticalAlign=middle;resizable=0;points=[];" vertex="1" connectable="0" parent="vbCb1EXiqkDTW1d0GYdN-5">
          <mxGeometry x="0.1714" y="-2" relative="1" as="geometry">
            <mxPoint as="offset" />
          </mxGeometry>
        </mxCell>
        <mxCell id="vbCb1EXiqkDTW1d0GYdN-54" style="edgeStyle=orthogonalEdgeStyle;rounded=0;orthogonalLoop=1;jettySize=auto;html=1;exitX=1;exitY=0.5;exitDx=0;exitDy=0;entryX=0;entryY=0.5;entryDx=0;entryDy=0;" edge="1" parent="WIyWlLk6GJQsqaUBKTNV-1" source="WIyWlLk6GJQsqaUBKTNV-6" target="vbCb1EXiqkDTW1d0GYdN-7">
          <mxGeometry relative="1" as="geometry">
            <Array as="points">
              <mxPoint x="280" y="140" />
            </Array>
          </mxGeometry>
        </mxCell>
        <mxCell id="vbCb1EXiqkDTW1d0GYdN-55" value="No" style="edgeLabel;html=1;align=center;verticalAlign=middle;resizable=0;points=[];" vertex="1" connectable="0" parent="vbCb1EXiqkDTW1d0GYdN-54">
          <mxGeometry x="0.287" y="1" relative="1" as="geometry">
            <mxPoint as="offset" />
          </mxGeometry>
        </mxCell>
        <object label="Is it a one?" id="WIyWlLk6GJQsqaUBKTNV-6">
          <mxCell style="rhombus;whiteSpace=wrap;html=1;shadow=0;fontFamily=Helvetica;fontSize=12;align=center;strokeWidth=1;spacing=6;spacingTop=-4;" parent="WIyWlLk6GJQsqaUBKTNV-1" vertex="1">
            <mxGeometry x="180" y="110" width="100" height="80" as="geometry" />
          </mxCell>
        </object>
        <mxCell id="vbCb1EXiqkDTW1d0GYdN-16" style="edgeStyle=orthogonalEdgeStyle;rounded=0;orthogonalLoop=1;jettySize=auto;html=1;entryX=0;entryY=0.5;entryDx=0;entryDy=0;" edge="1" parent="WIyWlLk6GJQsqaUBKTNV-1" source="WIyWlLk6GJQsqaUBKTNV-11" target="WIyWlLk6GJQsqaUBKTNV-12">
          <mxGeometry relative="1" as="geometry">
            <mxPoint x="160" y="590" as="targetPoint" />
            <Array as="points" />
          </mxGeometry>
        </mxCell>
        <mxCell id="WIyWlLk6GJQsqaUBKTNV-11" value="New Game" style="rounded=1;whiteSpace=wrap;html=1;fontSize=12;glass=0;strokeWidth=1;shadow=0;" parent="WIyWlLk6GJQsqaUBKTNV-1" vertex="1">
          <mxGeometry x="35" y="720" width="95" height="40" as="geometry" />
        </mxCell>
        <mxCell id="WIyWlLk6GJQsqaUBKTNV-12" value="Reset the game" style="rounded=1;whiteSpace=wrap;html=1;fontSize=12;glass=0;strokeWidth=1;shadow=0;" parent="WIyWlLk6GJQsqaUBKTNV-1" vertex="1">
          <mxGeometry x="210" y="720" width="120" height="40" as="geometry" />
        </mxCell>
        <mxCell id="vbCb1EXiqkDTW1d0GYdN-0" value="Player 2 turn &amp;amp; current = 0" style="rounded=1;whiteSpace=wrap;html=1;fontSize=12;glass=0;strokeWidth=1;shadow=0;" vertex="1" parent="WIyWlLk6GJQsqaUBKTNV-1">
          <mxGeometry x="360" y="160" width="100" height="40" as="geometry" />
        </mxCell>
        <mxCell id="vbCb1EXiqkDTW1d0GYdN-46" style="edgeStyle=orthogonalEdgeStyle;rounded=0;orthogonalLoop=1;jettySize=auto;html=1;entryX=0;entryY=0.5;entryDx=0;entryDy=0;" edge="1" parent="WIyWlLk6GJQsqaUBKTNV-1" source="vbCb1EXiqkDTW1d0GYdN-1" target="vbCb1EXiqkDTW1d0GYdN-34">
          <mxGeometry relative="1" as="geometry" />
        </mxCell>
        <mxCell id="vbCb1EXiqkDTW1d0GYdN-1" value="Player 2 rolls the dice" style="rounded=1;whiteSpace=wrap;html=1;fontSize=12;glass=0;strokeWidth=1;shadow=0;" vertex="1" parent="WIyWlLk6GJQsqaUBKTNV-1">
          <mxGeometry x="30" y="450" width="90" height="40" as="geometry" />
        </mxCell>
        <mxCell id="vbCb1EXiqkDTW1d0GYdN-56" style="edgeStyle=orthogonalEdgeStyle;rounded=0;orthogonalLoop=1;jettySize=auto;html=1;entryX=0;entryY=0.5;entryDx=0;entryDy=0;" edge="1" parent="WIyWlLk6GJQsqaUBKTNV-1" source="vbCb1EXiqkDTW1d0GYdN-7" target="vbCb1EXiqkDTW1d0GYdN-9">
          <mxGeometry relative="1" as="geometry" />
        </mxCell>
        <mxCell id="vbCb1EXiqkDTW1d0GYdN-57" style="edgeStyle=orthogonalEdgeStyle;rounded=0;orthogonalLoop=1;jettySize=auto;html=1;exitX=0.5;exitY=0;exitDx=0;exitDy=0;entryX=0.5;entryY=1;entryDx=0;entryDy=0;" edge="1" parent="WIyWlLk6GJQsqaUBKTNV-1" source="vbCb1EXiqkDTW1d0GYdN-7" target="vbCb1EXiqkDTW1d0GYdN-10">
          <mxGeometry relative="1" as="geometry" />
        </mxCell>
        <object label="Hold ?" id="vbCb1EXiqkDTW1d0GYdN-7">
          <mxCell style="rhombus;whiteSpace=wrap;html=1;shadow=0;fontFamily=Helvetica;fontSize=12;align=center;strokeWidth=1;spacing=6;spacingTop=-4;" vertex="1" parent="WIyWlLk6GJQsqaUBKTNV-1">
            <mxGeometry x="500" y="100" width="100" height="80" as="geometry" />
          </mxCell>
        </object>
        <mxCell id="vbCb1EXiqkDTW1d0GYdN-13" style="edgeStyle=orthogonalEdgeStyle;rounded=0;orthogonalLoop=1;jettySize=auto;html=1;" edge="1" parent="WIyWlLk6GJQsqaUBKTNV-1" source="vbCb1EXiqkDTW1d0GYdN-9" target="WIyWlLk6GJQsqaUBKTNV-6">
          <mxGeometry relative="1" as="geometry">
            <mxPoint x="660" y="350" as="targetPoint" />
            <Array as="points">
              <mxPoint x="710" y="290" />
              <mxPoint x="310" y="290" />
              <mxPoint x="310" y="240" />
              <mxPoint x="230" y="240" />
            </Array>
          </mxGeometry>
        </mxCell>
        <mxCell id="vbCb1EXiqkDTW1d0GYdN-9" value="Roll the die again" style="rounded=1;whiteSpace=wrap;html=1;fontSize=12;glass=0;strokeWidth=1;shadow=0;" vertex="1" parent="WIyWlLk6GJQsqaUBKTNV-1">
          <mxGeometry x="650" y="120" width="120" height="40" as="geometry" />
        </mxCell>
        <mxCell id="vbCb1EXiqkDTW1d0GYdN-10" value="Plyer 2 turn and add current to total" style="rounded=1;whiteSpace=wrap;html=1;fontSize=12;glass=0;strokeWidth=1;shadow=0;" vertex="1" parent="WIyWlLk6GJQsqaUBKTNV-1">
          <mxGeometry x="490" y="30" width="120" height="40" as="geometry" />
        </mxCell>
        <mxCell id="vbCb1EXiqkDTW1d0GYdN-32" style="edgeStyle=orthogonalEdgeStyle;rounded=0;orthogonalLoop=1;jettySize=auto;html=1;entryX=0;entryY=0.75;entryDx=0;entryDy=0;" edge="1" parent="WIyWlLk6GJQsqaUBKTNV-1" source="vbCb1EXiqkDTW1d0GYdN-34" target="vbCb1EXiqkDTW1d0GYdN-38">
          <mxGeometry relative="1" as="geometry" />
        </mxCell>
        <mxCell id="vbCb1EXiqkDTW1d0GYdN-33" value="Yes" style="edgeLabel;html=1;align=center;verticalAlign=middle;resizable=0;points=[];" vertex="1" connectable="0" parent="vbCb1EXiqkDTW1d0GYdN-32">
          <mxGeometry x="0.1714" y="-2" relative="1" as="geometry">
            <mxPoint as="offset" />
          </mxGeometry>
        </mxCell>
        <mxCell id="vbCb1EXiqkDTW1d0GYdN-47" style="edgeStyle=orthogonalEdgeStyle;rounded=0;orthogonalLoop=1;jettySize=auto;html=1;" edge="1" parent="WIyWlLk6GJQsqaUBKTNV-1" source="vbCb1EXiqkDTW1d0GYdN-34" target="vbCb1EXiqkDTW1d0GYdN-40">
          <mxGeometry relative="1" as="geometry">
            <mxPoint x="490" y="460" as="targetPoint" />
            <Array as="points">
              <mxPoint x="460" y="460" />
              <mxPoint x="460" y="460" />
            </Array>
          </mxGeometry>
        </mxCell>
        <mxCell id="vbCb1EXiqkDTW1d0GYdN-48" value="No" style="edgeLabel;html=1;align=center;verticalAlign=middle;resizable=0;points=[];" vertex="1" connectable="0" parent="vbCb1EXiqkDTW1d0GYdN-47">
          <mxGeometry x="0.2258" y="1" relative="1" as="geometry">
            <mxPoint as="offset" />
          </mxGeometry>
        </mxCell>
        <object label="Is it a one?" id="vbCb1EXiqkDTW1d0GYdN-34">
          <mxCell style="rhombus;whiteSpace=wrap;html=1;shadow=0;fontFamily=Helvetica;fontSize=12;align=center;strokeWidth=1;spacing=6;spacingTop=-4;" vertex="1" parent="WIyWlLk6GJQsqaUBKTNV-1">
            <mxGeometry x="180" y="430" width="100" height="80" as="geometry" />
          </mxCell>
        </object>
        <mxCell id="vbCb1EXiqkDTW1d0GYdN-38" value="Player 1 turn &amp;amp; current = 0" style="rounded=1;whiteSpace=wrap;html=1;fontSize=12;glass=0;strokeWidth=1;shadow=0;" vertex="1" parent="WIyWlLk6GJQsqaUBKTNV-1">
          <mxGeometry x="360" y="480" width="100" height="40" as="geometry" />
        </mxCell>
        <mxCell id="vbCb1EXiqkDTW1d0GYdN-49" style="edgeStyle=orthogonalEdgeStyle;rounded=0;orthogonalLoop=1;jettySize=auto;html=1;entryX=0.5;entryY=1;entryDx=0;entryDy=0;" edge="1" parent="WIyWlLk6GJQsqaUBKTNV-1" source="vbCb1EXiqkDTW1d0GYdN-40" target="vbCb1EXiqkDTW1d0GYdN-45">
          <mxGeometry relative="1" as="geometry" />
        </mxCell>
        <mxCell id="vbCb1EXiqkDTW1d0GYdN-50" style="edgeStyle=orthogonalEdgeStyle;rounded=0;orthogonalLoop=1;jettySize=auto;html=1;entryX=0;entryY=0.5;entryDx=0;entryDy=0;" edge="1" parent="WIyWlLk6GJQsqaUBKTNV-1" source="vbCb1EXiqkDTW1d0GYdN-40" target="vbCb1EXiqkDTW1d0GYdN-43">
          <mxGeometry relative="1" as="geometry" />
        </mxCell>
        <object label="Hold ?" id="vbCb1EXiqkDTW1d0GYdN-40">
          <mxCell style="rhombus;whiteSpace=wrap;html=1;shadow=0;fontFamily=Helvetica;fontSize=12;align=center;strokeWidth=1;spacing=6;spacingTop=-4;" vertex="1" parent="WIyWlLk6GJQsqaUBKTNV-1">
            <mxGeometry x="500" y="420" width="100" height="80" as="geometry" />
          </mxCell>
        </object>
        <mxCell id="vbCb1EXiqkDTW1d0GYdN-42" style="edgeStyle=orthogonalEdgeStyle;rounded=0;orthogonalLoop=1;jettySize=auto;html=1;" edge="1" parent="WIyWlLk6GJQsqaUBKTNV-1" source="vbCb1EXiqkDTW1d0GYdN-43" target="vbCb1EXiqkDTW1d0GYdN-34">
          <mxGeometry relative="1" as="geometry">
            <mxPoint x="660" y="670" as="targetPoint" />
            <Array as="points">
              <mxPoint x="710" y="610" />
              <mxPoint x="310" y="610" />
              <mxPoint x="310" y="560" />
              <mxPoint x="230" y="560" />
            </Array>
          </mxGeometry>
        </mxCell>
        <mxCell id="vbCb1EXiqkDTW1d0GYdN-43" value="Roll the die again" style="rounded=1;whiteSpace=wrap;html=1;fontSize=12;glass=0;strokeWidth=1;shadow=0;" vertex="1" parent="WIyWlLk6GJQsqaUBKTNV-1">
          <mxGeometry x="650" y="440" width="120" height="40" as="geometry" />
        </mxCell>
        <mxCell id="vbCb1EXiqkDTW1d0GYdN-45" value="Player 1 turn and add current to total" style="rounded=1;whiteSpace=wrap;html=1;fontSize=12;glass=0;strokeWidth=1;shadow=0;" vertex="1" parent="WIyWlLk6GJQsqaUBKTNV-1">
          <mxGeometry x="490" y="350" width="120" height="40" as="geometry" />
        </mxCell>
        <mxCell id="vbCb1EXiqkDTW1d0GYdN-52" value="Yes" style="text;html=1;align=center;verticalAlign=middle;resizable=0;points=[];autosize=1;strokeColor=none;" vertex="1" parent="WIyWlLk6GJQsqaUBKTNV-1">
          <mxGeometry x="540" y="400" width="40" height="20" as="geometry" />
        </mxCell>
        <mxCell id="vbCb1EXiqkDTW1d0GYdN-53" value="No" style="text;html=1;align=center;verticalAlign=middle;resizable=0;points=[];autosize=1;strokeColor=none;" vertex="1" parent="WIyWlLk6GJQsqaUBKTNV-1">
          <mxGeometry x="605" y="440" width="30" height="20" as="geometry" />
        </mxCell>
        <mxCell id="vbCb1EXiqkDTW1d0GYdN-58" value="Yes" style="text;html=1;align=center;verticalAlign=middle;resizable=0;points=[];autosize=1;strokeColor=none;" vertex="1" parent="WIyWlLk6GJQsqaUBKTNV-1">
          <mxGeometry x="540" y="80" width="40" height="20" as="geometry" />
        </mxCell>
        <mxCell id="vbCb1EXiqkDTW1d0GYdN-59" value="No" style="text;html=1;align=center;verticalAlign=middle;resizable=0;points=[];autosize=1;strokeColor=none;" vertex="1" parent="WIyWlLk6GJQsqaUBKTNV-1">
          <mxGeometry x="605" y="120" width="30" height="20" as="geometry" />
        </mxCell>
      </root>
    </mxGraphModel>
  </diagram>
</mxfile>
